<?xml version="1.0" encoding="iso-8859-1"?>
<!-- Uploaded to: SVG Repo, www.svgrepo.com, Generator: SVG Repo Mixer Tools -->
<svg fill="#000000" height="800px" width="800px" version="1.1" id="Layer_1" xmlns="http://www.w3.org/2000/svg" xmlns:xlink="http://www.w3.org/1999/xlink" 
	 viewBox="0 0 512 512" xml:space="preserve">
<g>
	<g>
		<path d="M492.263,19.713c-26.252-26.254-68.97-26.254-95.221,0L130.066,286.69c-3.441-0.338-6.928-0.515-10.457-0.515
			c-53.501,0-98.808,40.039-105.386,93.134L0.128,493.073c-0.639,5.15,1.133,10.305,4.802,13.973
			c3.757,3.757,8.963,5.43,13.974,4.803l113.763-14.096c53.096-6.577,93.136-51.883,93.136-105.386
			c0-3.528-0.177-7.015-0.515-10.456l266.976-266.976C518.577,88.624,518.581,46.03,492.263,19.713z M214.619,344.971
			c-10.294-20.551-27.061-37.317-47.612-47.612l28.368-28.368l47.612,47.612L214.619,344.971z"/>
	</g>
</g>
</svg>